<?xml version="1.0" ?>
<!DOCTYPE svg  PUBLIC '-//W3C//DTD SVG 1.1//EN'  'http://www.w3.org/Graphics/SVG/1.1/DTD/svg11.dtd'>
<!-- Uploaded to: SVG Repo, www.svgrepo.com, Generator: SVG Repo Mixer Tools -->
<svg width="800px" height="800px" viewBox="0 0 512 512" enable-background="new 0 0 512 512" id="Layer_1" version="1.1" xml:space="preserve" xmlns="http://www.w3.org/2000/svg" xmlns:xlink="http://www.w3.org/1999/xlink">
<g>
<g>
<path d="M450.255,434.511H61.745c-13.257,0-24.042-10.785-24.042-24.043V101.531    c0-13.257,10.785-24.042,24.042-24.042h388.511c13.257,0,24.042,10.785,24.042,24.042v308.937    C474.298,423.726,463.513,434.511,450.255,434.511z M61.745,97.489c-2.229,0-4.042,1.813-4.042,4.042v308.937    c0,2.229,1.813,4.043,4.042,4.043h388.511c2.229,0,4.042-1.813,4.042-4.043V101.531c0-2.229-1.813-4.042-4.042-4.042H61.745z" fill="#444B54"/>
</g>
<g>
<path d="M450.117,163.589H63.655c-13.298,0-24.118-10.786-24.118-24.043v-38.015    c0-13.257,10.819-24.042,24.118-24.042h386.462c13.298,0,24.118,10.785,24.118,24.042v38.015    C474.235,152.803,463.416,163.589,450.117,163.589z M63.655,97.489c-2.271,0-4.118,1.813-4.118,4.042v38.015    c0,2.229,1.847,4.043,4.118,4.043h386.462c2.271,0,4.118-1.813,4.118-4.043v-38.015c0-2.229-1.847-4.042-4.118-4.042H63.655z" fill="#444B54"/>
</g>
<g>
<path d="M93.73,128.689c-2.63,0-5.21-1.06-7.07-2.93c-1.86-1.86-2.93-4.43-2.93-7.07c0-2.63,1.07-5.21,2.93-7.069    c1.86-1.86,4.44-2.931,7.07-2.931c2.63,0,5.21,1.07,7.07,2.931c1.86,1.859,2.93,4.439,2.93,7.069c0,2.641-1.07,5.21-2.93,7.07    C98.94,127.63,96.36,128.689,93.73,128.689z" fill="#444B54"/>
</g>
<g>
<path d="M142.49,128.689c-2.63,0-5.21-1.06-7.07-2.93c-1.86-1.86-2.93-4.43-2.93-7.07c0-2.63,1.07-5.21,2.93-7.069    c1.86-1.86,4.44-2.931,7.07-2.931s5.21,1.07,7.07,2.931c1.86,1.859,2.93,4.439,2.93,7.069c0,2.641-1.07,5.21-2.93,7.07    C147.7,127.63,145.12,128.689,142.49,128.689z" fill="#444B54"/>
</g>
<g>
<path d="M187.11,130.54c-2.63,0-5.21-1.07-7.07-2.931c-1.87-1.859-2.93-4.439-2.93-7.069s1.06-5.21,2.93-7.07    c1.86-1.86,4.43-2.93,7.07-2.93c2.63,0,5.21,1.069,7.07,2.93c1.86,1.86,2.93,4.44,2.93,7.07s-1.07,5.21-2.93,7.069    C192.32,129.47,189.74,130.54,187.11,130.54z" fill="#444B54"/>
</g>
<g>
<path d="M94.28,281.109c-2.63,0-5.21-1.069-7.07-2.93c-1.86-1.86-2.93-4.439-2.93-7.07    c0-2.63,1.07-5.21,2.93-7.069c1.86-1.86,4.44-2.931,7.07-2.931s5.21,1.07,7.07,2.931c1.86,1.859,2.93,4.439,2.93,7.069    c0,2.631-1.07,5.21-2.93,7.07C99.49,280.04,96.91,281.109,94.28,281.109z" fill="#444B54"/>
</g>
<g>
<path d="M124.32,281.109c-2.63,0-5.2-1.069-7.07-2.93c-1.86-1.86-2.93-4.439-2.93-7.07    c0-2.63,1.07-5.21,2.93-7.069c1.86-1.86,4.44-2.931,7.07-2.931c2.64,0,5.21,1.07,7.08,2.931c1.86,1.859,2.93,4.439,2.93,7.069    c0,2.631-1.07,5.21-2.93,7.07C129.53,280.04,126.95,281.109,124.32,281.109z" fill="#444B54"/>
</g>
<g>
<path d="M125.168,321.092H94.28c-5.523,0-10-4.478-10-10c0-14.031,11.414-25.446,25.442-25.446    c14.031,0,25.446,11.415,25.446,25.446C135.168,316.614,130.691,321.092,125.168,321.092z" fill="#444B54"/>
</g>
<g>
<path d="M92.74,195.819c-2.63,0-5.21-1.06-7.07-2.93c-1.86-1.86-2.93-4.43-2.93-7.07c0-2.63,1.07-5.21,2.93-7.069    c1.86-1.86,4.44-2.931,7.07-2.931s5.21,1.07,7.07,2.931c1.86,1.859,2.93,4.439,2.93,7.069c0,2.631-1.07,5.21-2.93,7.07    C97.95,194.76,95.37,195.819,92.74,195.819z" fill="#444B54"/>
</g>
<g>
<path d="M122.78,195.819c-2.63,0-5.21-1.06-7.07-2.93c-1.86-1.86-2.93-4.439-2.93-7.07    c0-2.63,1.07-5.21,2.93-7.069c1.86-1.86,4.44-2.931,7.07-2.931c2.64,0,5.21,1.07,7.07,2.931c1.87,1.859,2.93,4.439,2.93,7.069    c0,2.631-1.06,5.21-2.93,7.07C127.99,194.76,125.41,195.819,122.78,195.819z" fill="#444B54"/>
</g>
<g>
<path d="M109.726,239.411c-13.57,0-24.609-11.038-24.609-24.606c0-5.522,4.477-10,10-10h29.215    c5.523,0,10,4.478,10,10C134.332,228.373,123.293,239.411,109.726,239.411z" fill="#444B54"/>
</g>
<g>
<path d="M91.1,371.55c-2.63,0-5.21-1.07-7.07-2.93c-1.86-1.86-2.93-4.431-2.93-7.07c0-2.63,1.07-5.2,2.93-7.07    c1.86-1.859,4.44-2.93,7.07-2.93c2.63,0,5.21,1.07,7.07,2.93c1.86,1.86,2.93,4.44,2.93,7.07c0,2.64-1.07,5.21-2.93,7.07    C96.31,370.479,93.73,371.55,91.1,371.55z" fill="#444B54"/>
</g>
<g>
<path d="M127.47,371.55c-2.63,0-5.21-1.07-7.07-2.93c-1.86-1.86-2.93-4.431-2.93-7.07c0-2.63,1.07-5.21,2.93-7.07    c1.86-1.859,4.44-2.93,7.07-2.93s5.21,1.07,7.07,2.93c1.86,1.87,2.93,4.44,2.93,7.07c0,2.64-1.07,5.21-2.93,7.07    C132.68,370.479,130.1,371.55,127.47,371.55z" fill="#444B54"/>
</g>
<g>
<path d="M132.564,406.588H86.884c-5.523,0-10-4.478-10-10v-7.432c0-5.522,4.477-10,10-10h45.681    c5.523,0,10,4.478,10,10v7.432C142.564,402.11,138.087,406.588,132.564,406.588z" fill="#444B54"/>
</g>
<g>
<path d="M253.367,211.139h-97.333c-5.523,0-10-4.478-10-10s4.477-10,10-10h97.333c5.523,0,10,4.478,10,10    S258.89,211.139,253.367,211.139z" fill="#444B54"/>
</g>
<g>
<path d="M201.367,238.472h-45.333c-5.523,0-10-4.478-10-10s4.477-10,10-10h45.333c5.523,0,10,4.478,10,10    S206.89,238.472,201.367,238.472z" fill="#444B54"/>
</g>
<g>
<path d="M250.034,291.979H152.7c-5.523,0-10-4.478-10-10s4.477-10,10-10h97.333c5.523,0,10,4.478,10,10    S255.557,291.979,250.034,291.979z" fill="#444B54"/>
</g>
<g>
<path d="M198.034,319.313H152.7c-5.523,0-10-4.478-10-10s4.477-10,10-10h45.333c5.523,0,10,4.478,10,10    S203.557,319.313,198.034,319.313z" fill="#444B54"/>
</g>
<g>
<path d="M253.367,379.255h-97.333c-5.523,0-10-4.478-10-10s4.477-10,10-10h97.333c5.523,0,10,4.478,10,10    S258.89,379.255,253.367,379.255z" fill="#444B54"/>
</g>
<g>
<path d="M201.367,406.588h-45.333c-5.523,0-10-4.478-10-10s4.477-10,10-10h45.333c5.523,0,10,4.478,10,10    S206.89,406.588,201.367,406.588z" fill="#444B54"/>
</g>
<g>
<path d="M464.298,410.468c0,7.756-6.287,14.043-14.042,14.043H61.745c-7.755,0-14.042-6.287-14.042-14.043V101.531    c0-7.755,6.287-14.042,14.042-14.042h388.511c7.755,0,14.042,6.287,14.042,14.042V410.468z" fill="#D9DCE1"/>
<path d="M450.255,434.511H61.745c-13.257,0-24.042-10.785-24.042-24.043V101.531    c0-13.257,10.785-24.042,24.042-24.042h388.511c13.257,0,24.042,10.785,24.042,24.042v308.937    C474.298,423.726,463.513,434.511,450.255,434.511z M61.745,97.489c-2.229,0-4.042,1.813-4.042,4.042v308.937    c0,2.229,1.813,4.043,4.042,4.043h388.511c2.229,0,4.042-1.813,4.042-4.043V101.531c0-2.229-1.813-4.042-4.042-4.042H61.745z" fill="#444B54"/>
</g>
<g>
<path d="M464.235,139.546c0,7.756-6.321,14.043-14.118,14.043H63.655c-7.797,0-14.118-6.287-14.118-14.043v-38.015    c0-7.755,6.321-14.042,14.118-14.042h386.462c7.797,0,14.118,6.287,14.118,14.042V139.546z" fill="#3C74BA"/>
<path d="M450.117,163.589H63.655c-13.298,0-24.118-10.786-24.118-24.043v-38.015    c0-13.257,10.819-24.042,24.118-24.042h386.462c13.298,0,24.118,10.785,24.118,24.042v38.015    C474.235,152.803,463.416,163.589,450.117,163.589z M63.655,97.489c-2.271,0-4.118,1.813-4.118,4.042v38.015    c0,2.229,1.847,4.043,4.118,4.043h386.462c2.271,0,4.118-1.813,4.118-4.043v-38.015c0-2.229-1.847-4.042-4.118-4.042H63.655z" fill="#444B54"/>
</g>
<g>
<path d="M93.73,128.689c-2.63,0-5.21-1.06-7.07-2.93c-1.86-1.86-2.93-4.43-2.93-7.07c0-2.63,1.07-5.21,2.93-7.069    c1.86-1.86,4.44-2.931,7.07-2.931c2.63,0,5.21,1.07,7.07,2.931c1.86,1.859,2.93,4.439,2.93,7.069c0,2.641-1.07,5.21-2.93,7.07    C98.94,127.63,96.36,128.689,93.73,128.689z" fill="#444B54"/>
</g>
<g>
<path d="M142.49,128.689c-2.63,0-5.21-1.06-7.07-2.93c-1.86-1.86-2.93-4.43-2.93-7.07c0-2.63,1.07-5.21,2.93-7.069    c1.86-1.86,4.44-2.931,7.07-2.931s5.21,1.07,7.07,2.931c1.86,1.859,2.93,4.439,2.93,7.069c0,2.641-1.07,5.21-2.93,7.07    C147.7,127.63,145.12,128.689,142.49,128.689z" fill="#444B54"/>
</g>
<g>
<path d="M187.11,130.54c-2.63,0-5.21-1.07-7.07-2.931c-1.87-1.859-2.93-4.439-2.93-7.069s1.06-5.21,2.93-7.07    c1.86-1.86,4.43-2.93,7.07-2.93c2.63,0,5.21,1.069,7.07,2.93c1.86,1.86,2.93,4.44,2.93,7.07s-1.07,5.21-2.93,7.069    C192.32,129.47,189.74,130.54,187.11,130.54z" fill="#444B54"/>
</g>
<g>
<path d="M94.28,281.109c-2.63,0-5.21-1.069-7.07-2.93c-1.86-1.86-2.93-4.439-2.93-7.07    c0-2.63,1.07-5.21,2.93-7.069c1.86-1.86,4.44-2.931,7.07-2.931s5.21,1.07,7.07,2.931c1.86,1.859,2.93,4.439,2.93,7.069    c0,2.631-1.07,5.21-2.93,7.07C99.49,280.04,96.91,281.109,94.28,281.109z" fill="#444B54"/>
</g>
<g>
<path d="M124.32,281.109c-2.63,0-5.2-1.069-7.07-2.93c-1.86-1.86-2.93-4.439-2.93-7.07    c0-2.63,1.07-5.21,2.93-7.069c1.86-1.86,4.44-2.931,7.07-2.931c2.64,0,5.21,1.07,7.08,2.931c1.86,1.859,2.93,4.439,2.93,7.069    c0,2.631-1.07,5.21-2.93,7.07C129.53,280.04,126.95,281.109,124.32,281.109z" fill="#444B54"/>
</g>
<g>
<path d="M125.168,321.092H94.28c-5.523,0-10-4.478-10-10c0-14.031,11.414-25.446,25.442-25.446    c14.031,0,25.446,11.415,25.446,25.446C135.168,316.614,130.691,321.092,125.168,321.092z" fill="#444B54"/>
</g>
<g>
<path d="M92.74,195.819c-2.63,0-5.21-1.06-7.07-2.93c-1.86-1.86-2.93-4.43-2.93-7.07c0-2.63,1.07-5.21,2.93-7.069    c1.86-1.86,4.44-2.931,7.07-2.931s5.21,1.07,7.07,2.931c1.86,1.859,2.93,4.439,2.93,7.069c0,2.631-1.07,5.21-2.93,7.07    C97.95,194.76,95.37,195.819,92.74,195.819z" fill="#444B54"/>
</g>
<g>
<path d="M122.78,195.819c-2.63,0-5.21-1.06-7.07-2.93c-1.86-1.86-2.93-4.439-2.93-7.07    c0-2.63,1.07-5.21,2.93-7.069c1.86-1.86,4.44-2.931,7.07-2.931c2.64,0,5.21,1.07,7.07,2.931c1.87,1.859,2.93,4.439,2.93,7.069    c0,2.631-1.06,5.21-2.93,7.07C127.99,194.76,125.41,195.819,122.78,195.819z" fill="#444B54"/>
</g>
<g>
<path d="M109.726,239.411c-13.57,0-24.609-11.038-24.609-24.606c0-5.522,4.477-10,10-10h29.215    c5.523,0,10,4.478,10,10C134.332,228.373,123.293,239.411,109.726,239.411z" fill="#444B54"/>
</g>
<g>
<path d="M91.1,371.55c-2.63,0-5.21-1.07-7.07-2.93c-1.86-1.86-2.93-4.431-2.93-7.07c0-2.63,1.07-5.2,2.93-7.07    c1.86-1.859,4.44-2.93,7.07-2.93c2.63,0,5.21,1.07,7.07,2.93c1.86,1.86,2.93,4.44,2.93,7.07c0,2.64-1.07,5.21-2.93,7.07    C96.31,370.479,93.73,371.55,91.1,371.55z" fill="#444B54"/>
</g>
<g>
<path d="M127.47,371.55c-2.63,0-5.21-1.07-7.07-2.93c-1.86-1.86-2.93-4.431-2.93-7.07c0-2.63,1.07-5.21,2.93-7.07    c1.86-1.859,4.44-2.93,7.07-2.93s5.21,1.07,7.07,2.93c1.86,1.87,2.93,4.44,2.93,7.07c0,2.64-1.07,5.21-2.93,7.07    C132.68,370.479,130.1,371.55,127.47,371.55z" fill="#444B54"/>
</g>
<g>
<path d="M132.564,406.588H86.884c-5.523,0-10-4.478-10-10v-7.432c0-5.522,4.477-10,10-10h45.681    c5.523,0,10,4.478,10,10v7.432C142.564,402.11,138.087,406.588,132.564,406.588z" fill="#444B54"/>
</g>
<g>
<path d="M253.367,211.139h-97.333c-5.523,0-10-4.478-10-10s4.477-10,10-10h97.333c5.523,0,10,4.478,10,10    S258.89,211.139,253.367,211.139z" fill="#444B54"/>
</g>
<g>
<path d="M201.367,238.472h-45.333c-5.523,0-10-4.478-10-10s4.477-10,10-10h45.333c5.523,0,10,4.478,10,10    S206.89,238.472,201.367,238.472z" fill="#444B54"/>
</g>
<g>
<path d="M250.034,291.979H152.7c-5.523,0-10-4.478-10-10s4.477-10,10-10h97.333c5.523,0,10,4.478,10,10    S255.557,291.979,250.034,291.979z" fill="#444B54"/>
</g>
<g>
<path d="M198.034,319.313H152.7c-5.523,0-10-4.478-10-10s4.477-10,10-10h45.333c5.523,0,10,4.478,10,10    S203.557,319.313,198.034,319.313z" fill="#444B54"/>
</g>
<g>
<path d="M253.367,379.255h-97.333c-5.523,0-10-4.478-10-10s4.477-10,10-10h97.333c5.523,0,10,4.478,10,10    S258.89,379.255,253.367,379.255z" fill="#444B54"/>
</g>
<g>
<path d="M201.367,406.588h-45.333c-5.523,0-10-4.478-10-10s4.477-10,10-10h45.333c5.523,0,10,4.478,10,10    S206.89,406.588,201.367,406.588z" fill="#444B54"/>
</g>
</g>
</svg>